<svg id="SvgjsSvg1001" width="288" height="288" xmlns="http://www.w3.org/2000/svg" version="1.1" xmlns:xlink="http://www.w3.org/1999/xlink" xmlns:svgjs="http://svgjs.com/svgjs"><defs id="SvgjsDefs1002"></defs><g id="SvgjsG1008"><svg xmlns="http://www.w3.org/2000/svg" enable-background="new 0 0 1000 1000" viewBox="0 0 1000 1000" width="288" height="288"><path d="M579.6,500l333.2,397c14.4,17.2,12.2,42.9-5,57.3l-31.1,26.2c-17.2,14.4-42.9,12.2-57.3-5L500,594.9L180.7,975.5c-14.5,17.2-40.1,19.5-57.3,5l-31.1-26.2c-17.2-14.4-19.5-40.1-5-57.3l333.2-397L87.2,103c-14.4-17.2-12.2-42.9,5-57.3l31.1-26.2c17.2-14.4,42.9-12.2,57.3,5.1L500,405.1L819.3,24.6c14.5-17.2,40.1-19.5,57.3-5l31.1,26.2c17.2,14.4,19.5,40.1,5,57.3L579.6,500z" fill="#ffffff" class="color000 svgShape"></path></svg></g></svg>