<?xml version="1.0" encoding="utf-8"?>
<!-- Generator: Adobe Illustrator 26.0.1, SVG Export Plug-In . SVG Version: 6.00 Build 0)  -->
<svg version="1.1" id="Layer_1" xmlns="http://www.w3.org/2000/svg" xmlns:xlink="http://www.w3.org/1999/xlink" x="0px" y="0px"
	 viewBox="0 0 142.4 141.2" style="enable-background:new 0 0 142.4 141.2;" xml:space="preserve">
<style type="text/css">
	.st0{clip-path:url(#SVGID_00000109011941437628873010000001833517869993347980_);}
	.st1{fill:#2E647D;}
	.st2{fill-rule:evenodd;clip-rule:evenodd;fill:#EAA342;}
	.st3{fill:#EAA342;}
	.st4{fill:#4697C0;}
	.st5{fill:#D85B37;}
</style>
<g>
	<circle class="st2" cx="71.2" cy="70.6" r="67.5"/>
	<g>
		<path class="st1" d="M57.5,109.5c33,0,51-27.3,51-51c0-0.8,0-1.5-0.1-2.3c3.5-2.5,6.5-5.7,8.9-9.3c-3.2,1.4-6.7,2.4-10.3,2.8
			c3.7-2.2,6.5-5.7,7.9-9.9c-3.5,2.1-7.3,3.5-11.4,4.4c-3.3-3.5-7.9-5.7-13.1-5.7c-9.9,0-17.9,8-17.9,17.9c0,1.4,0.2,2.8,0.5,4.1
			C58.2,59.8,45,52.6,36.1,41.8c-1.5,2.6-2.4,5.7-2.4,9c0,6.2,3.2,11.7,8,14.9c-2.9-0.1-5.7-0.9-8.1-2.2c0,0.1,0,0.1,0,0.2
			c0,8.7,6.2,15.9,14.4,17.6c-1.5,0.4-3.1,0.6-4.7,0.6c-1.2,0-2.3-0.1-3.4-0.3c2.3,7.1,8.9,12.3,16.7,12.4
			c-6.1,4.8-13.9,7.7-22.3,7.7c-1.4,0-2.9-0.1-4.3-0.2C38,106.5,47.4,109.5,57.5,109.5"/>
	</g>
</g>
</svg>
