<?xml version="1.0" encoding="utf-8"?>
<!-- Generator: Adobe Illustrator 26.0.1, SVG Export Plug-In . SVG Version: 6.00 Build 0)  -->
<svg version="1.1" id="Layer_1" xmlns="http://www.w3.org/2000/svg" xmlns:xlink="http://www.w3.org/1999/xlink" x="0px" y="0px"
	 viewBox="0 0 142.4 141.2" style="enable-background:new 0 0 142.4 141.2;" xml:space="preserve">
<style type="text/css">
	.st0{clip-path:url(#SVGID_00000148619665131578814620000008892522450662121603_);}
	.st1{fill:#2E647D;}
	.st2{fill-rule:evenodd;clip-rule:evenodd;fill:#EAA342;}
	.st3{fill:#EAA342;}
	.st4{fill:#4697C0;}
	.st5{fill:#D85B37;}
</style>
<g>
	<g>
		<defs>
			<circle id="SVGID_1_" cx="71.2" cy="70.6" r="67.5"/>
		</defs>
		<use xlink:href="#SVGID_1_"  style="overflow:visible;fill:#EAA342;"/>
		<clipPath id="SVGID_00000124145019955687807160000007571950507751570847_">
			<use xlink:href="#SVGID_1_"  style="overflow:visible;"/>
		</clipPath>
		<g style="clip-path:url(#SVGID_00000124145019955687807160000007571950507751570847_);">
			<defs>
				<rect id="SVGID_00000161604570132321682880000007343927075483568317_" x="-1.3" y="-1.9" width="145" height="145"/>
			</defs>
			<use xlink:href="#SVGID_00000161604570132321682880000007343927075483568317_"  style="overflow:visible;fill:#EAA342;"/>
			<clipPath id="SVGID_00000054970374075394238470000009464288861659267763_">
				<use xlink:href="#SVGID_00000161604570132321682880000007343927075483568317_"  style="overflow:visible;"/>
			</clipPath>
		</g>
	</g>
	<g>
		<path class="st1" d="M71.2,35.8c11.3,0,12.7,0,17.2,0.2c4.1,0.2,6.4,0.9,7.9,1.5c2,0.8,3.4,1.7,4.9,3.2c1.5,1.5,2.4,2.9,3.2,4.9
			c0.6,1.5,1.3,3.7,1.5,7.9c0.2,4.5,0.2,5.8,0.2,17.2c0,11.3,0,12.7-0.2,17.2c-0.2,4.1-0.9,6.4-1.5,7.9c-0.8,2-1.7,3.4-3.2,4.9
			c-1.5,1.5-2.9,2.4-4.9,3.2c-1.5,0.6-3.7,1.3-7.9,1.5c-4.5,0.2-5.8,0.2-17.2,0.2c-11.3,0-12.7,0-17.2-0.2c-4.1-0.2-6.4-0.9-7.9-1.5
			c-2-0.8-3.4-1.7-4.9-3.2c-1.5-1.5-2.4-2.9-3.2-4.9c-0.6-1.5-1.3-3.7-1.5-7.9c-0.2-4.5-0.2-5.8-0.2-17.2c0-11.3,0-12.7,0.2-17.2
			c0.2-4.1,0.9-6.4,1.5-7.9c0.8-2,1.7-3.4,3.2-4.9c1.5-1.5,2.9-2.4,4.9-3.2c1.5-0.6,3.7-1.3,7.9-1.5C58.5,35.8,59.8,35.8,71.2,35.8
			 M71.2,28.1c-11.5,0-13,0-17.5,0.3c-4.5,0.2-7.6,0.9-10.3,2c-2.8,1.1-5.2,2.5-7.5,4.9c-2.4,2.4-3.8,4.7-4.9,7.5
			c-1.1,2.7-1.8,5.8-2,10.3c-0.2,4.5-0.3,6-0.3,17.5c0,11.5,0,13,0.3,17.5c0.2,4.5,0.9,7.6,2,10.3c1.1,2.8,2.5,5.2,4.9,7.5
			c2.4,2.4,4.7,3.8,7.5,4.9c2.7,1.1,5.8,1.8,10.3,2c4.5,0.2,6,0.3,17.5,0.3c11.5,0,13,0,17.5-0.3c4.5-0.2,7.6-0.9,10.3-2
			c2.8-1.1,5.2-2.5,7.5-4.9c2.4-2.4,3.8-4.7,4.9-7.5c1.1-2.7,1.8-5.8,2-10.3c0.2-4.5,0.3-6,0.3-17.5s0-13-0.3-17.5
			c-0.2-4.5-0.9-7.6-2-10.3c-1.1-2.8-2.5-5.2-4.9-7.5c-2.4-2.4-4.7-3.8-7.5-4.9c-2.7-1.1-5.8-1.8-10.3-2
			C84.2,28.2,82.7,28.1,71.2,28.1L71.2,28.1z"/>
		<path class="st1" d="M71.2,48.8c-12.1,0-21.8,9.8-21.8,21.8s9.8,21.8,21.8,21.8c12.1,0,21.8-9.8,21.8-21.8S83.2,48.8,71.2,48.8z
			 M71.2,84.8c-7.8,0-14.2-6.3-14.2-14.2s6.3-14.2,14.2-14.2s14.2,6.3,14.2,14.2S79,84.8,71.2,84.8z"/>
		<circle class="st1" cx="93.9" cy="47.9" r="5.1"/>
	</g>
</g>
</svg>
