<?xml version="1.0" encoding="utf-8"?>
<!-- Generator: Adobe Illustrator 26.0.1, SVG Export Plug-In . SVG Version: 6.00 Build 0)  -->
<svg version="1.1" id="Layer_1" xmlns="http://www.w3.org/2000/svg" xmlns:xlink="http://www.w3.org/1999/xlink" x="0px" y="0px"
	 viewBox="0 0 142.4 141.2" style="enable-background:new 0 0 142.4 141.2;" xml:space="preserve">
<style type="text/css">
	.st0{clip-path:url(#SVGID_00000134249328704965725670000017496516861092331435_);}
	.st1{fill:#2E647D;}
	.st2{fill-rule:evenodd;clip-rule:evenodd;fill:#EAA342;}
	.st3{fill:#EAA342;}
	.st4{fill:#4697C0;}
	.st5{fill:#D85B37;}
</style>
<g>
	<path class="st3" d="M138.7,70.6c0-37.3-30.2-67.5-67.5-67.5S3.7,33.3,3.7,70.6c0,33.7,24.7,61.6,57,66.7V90.1H43.5V70.6h17.1V55.8
		c0-16.9,10.1-26.3,25.5-26.3c7.4,0,15.1,1.3,15.1,1.3v16.6h-8.5c-8.4,0-11,5.2-11,10.5v12.7h18.7l-3,19.5H81.7v47.2
		C114,132.2,138.7,104.3,138.7,70.6z"/>
	<path class="st1" d="M97.5,90.1l3-19.5H81.7V58c0-5.3,2.6-10.5,11-10.5h8.5V30.8c0,0-7.7-1.3-15.1-1.3c-15.4,0-25.5,9.3-25.5,26.3
		v14.9H43.5v19.5h17.1v47.2c3.4,0.5,7,0.8,10.5,0.8c3.6,0,7.1-0.3,10.5-0.8V90.1H97.5z"/>
</g>
</svg>
