<?xml version="1.0" encoding="utf-8"?>
<!-- Generator: Adobe Illustrator 26.0.1, SVG Export Plug-In . SVG Version: 6.00 Build 0)  -->
<svg version="1.1" id="Layer_1" xmlns="http://www.w3.org/2000/svg" xmlns:xlink="http://www.w3.org/1999/xlink" x="0px" y="0px"
	 viewBox="0 0 142.4 141.2" style="enable-background:new 0 0 142.4 141.2;" xml:space="preserve">
<style type="text/css">
	.st0{clip-path:url(#SVGID_00000148636468034518008930000010407307948575985807_);}
	.st1{fill:#2E647D;}
	.st2{fill-rule:evenodd;clip-rule:evenodd;fill:#EAA342;}
	.st3{fill:#EAA342;}
	.st4{fill:#4697C0;}
	.st5{fill:#D85B37;}
</style>
<g>
	<circle class="st3" cx="71.2" cy="70.6" r="67.5"/>
	<g>
		<path class="st1" d="M53.2,98.1c0.1,0.1,0.2,0.1,0.2,0.2c0.7,0.5,1.3,1.3,2,1.8c2.2,1.7,4.7,2.7,7.6,2.9
			c6.8,0.4,12.7-4.6,13.5-11.1c0-0.3,0-0.6,0-1c0-19.7,0-39.4,0-59.1c0-1.3,0-1.3,1.4-1.3c3.1,0,6.1,0,9.2,0c0.3,0,0.6-0.1,0.9,0.1
			c0,0,0,0,0.1,0c0.1,0.1,0.2,0.3,0.2,0.5c1.2,5.3,4,9.5,8.5,12.7c0.3,0.2,0.5,0.4,0.8,0.7c0.2,0.2,0.4,0.3,0.6,0.5
			c0.7,0.4,1.2,1,1.9,1.6c2.5,2,5.3,3.4,8.4,4.2c0.3,0.1,0.6,0.1,0.8,0.3c0,0,0,0,0.1,0c0.2,0.2,0.2,0.4,0.2,0.7c0,3.5,0,6.9,0,10.4
			c0,0.8-0.1,0.8-0.9,0.8c-2.6,0-5.2-0.3-7.7-0.9c-4.4-1-8.4-2.7-12.1-5.1c-0.2-0.1-0.4-0.4-0.6-0.3c-0.3,0.1-0.1,0.4-0.1,0.7
			c0,9.8,0,19.5,0,29.3c0,6.8-2.3,12.9-6.9,18.1c-4.9,5.5-11.1,8.7-18.5,9.6c-5.7,0.7-11.2-0.3-16.3-2.8c-0.8-0.4-1.6-0.9-2.4-1.4
			c-0.2-0.2-0.5-0.4-0.7-0.6c-1.8-1.4-3-3.3-4.2-5.2c-1.8-2.9-2.9-6.1-3.5-9.4c-0.3-1.9-0.5-3.9-0.4-5.8c0.4-6.3,2.5-11.8,6.6-16.7
			c3.5-4,7.8-6.9,12.9-8.6c2.1-0.7,4.3-1.2,6.6-1.3c0.4,0,0.8-0.1,1.3-0.1c0.2,0,0.4,0,0.6,0.1c0,0,0,0,0.1,0
			c0.1,0.2,0.1,0.4,0.1,0.6c0,3.5,0,7,0,10.6c0,0.1,0,0.2,0,0.4c0,0.4-0.2,0.5-0.5,0.4c-1-0.3-2-0.4-3-0.5c-1.6-0.1-3.1,0.1-4.6,0.7
			c-5,1.8-8,5.3-8.6,10.4c-0.6,5,1.4,9.1,5.7,12C52.5,97.6,52.8,97.9,53.2,98.1z"/>
		<path class="st4" d="M43.8,110.3c0.2-0.1,0.3,0.1,0.4,0.2c3.2,2,6.7,3.3,10.4,3.9c1.9,0.3,3.8,0.4,5.7,0.3c6.4-0.3,12-2.4,17-6.5
			c4.7-3.9,7.9-8.9,9.5-14.8c0.5-1.9,0.8-3.8,0.9-5.7c0.1-1.1,0.1-2.2,0.1-3.3c0-9.6,0-19.1,0-28.7c0-0.2,0-0.4,0-0.7
			c0.2-0.1,0.4,0.1,0.5,0.2c3.4,2.3,7.1,4.1,11.1,5.1c2.2,0.6,4.4,1,6.7,1.2c0.9,0.1,1.9,0.1,2.8,0.1c0.4,0,0.4,0,0.4-0.4
			c0-0.5,0-0.9,0-1.4c0-3.2,0-6.5,0-9.7c0-0.2,0-0.4,0-0.6c0.9,0.1,1.7,0.3,2.5,0.3c0.5,0,1.1,0.1,1.6,0.1c0.3,0,0.4,0.1,0.3,0.3
			c0,0.1,0,0.2,0,0.3c0,4.7,0,9.3,0,14c0,0.1,0,0.2,0,0.3c0,0.4,0,0.4-0.4,0.4c-1.5,0-2.9-0.1-4.4-0.3c-3-0.4-5.8-1.1-8.6-2.2
			c-2.7-1-5.2-2.4-7.5-4c-0.1-0.1-0.3-0.2-0.5-0.3c0,0.3,0,0.5,0,0.7c0,10.2,0,20.4,0,30.6c0,5.4-1.4,10.5-4.3,15.1
			c-3.5,5.6-8.4,9.5-14.6,11.7c-3.8,1.4-7.6,1.9-11.6,1.6c-6.7-0.5-12.6-3.1-17.5-7.6C44,110.6,43.9,110.4,43.8,110.3z"/>
		<path class="st5" d="M87.9,28.5c-0.2,0-0.4,0-0.6,0c-3.3,0-6.6,0-9.9,0c-0.8,0-0.8,0-0.8,0.7c0,20.1,0,40.2,0,60.3
			c0,1.4-0.1,2.8-0.5,4.1c-1.5,4.7-4.7,7.8-9.5,8.9c-5.2,1.2-9.6-0.4-13.1-4.4c-0.1-0.1-0.1-0.2-0.1-0.2c1,0.4,2,0.8,3.1,1
			c3.4,0.7,6.5,0.2,9.5-1.7c3.4-2.1,5.4-5.1,6.1-9c0.1-0.7,0.2-1.5,0.2-2.2c0-20.1,0-40.2,0-60.4c0-0.9-0.1-0.8,0.8-0.8
			c4.6,0,9.3,0,13.9,0c0.1,0,0.2,0,0.3,0c0.5,0,0.5,0,0.5,0.5C87.7,26.4,87.7,27.5,87.9,28.5z"/>
		<path class="st5" d="M63,61.5c-2.8,0.1-5.6,0.5-8.3,1.4c-3.9,1.3-7.4,3.3-10.4,6.1c-4,3.6-6.7,8.1-8.1,13.2
			c-0.5,1.8-0.8,3.7-1,5.6c-0.1,1.1-0.1,2.3,0,3.4c0.2,3.2,0.8,6.3,2,9.2c1.4,3.3,3.2,6.3,5.7,8.9c0,0.1,0.1,0.1,0.1,0.2
			c-0.6-0.2-1-0.6-1.5-1c-4.6-3.6-7.8-8.2-9.6-13.9c-0.6-2-1-3.9-1.2-6c-0.1-1.5-0.2-3-0.1-4.4c0.2-3.4,1-6.7,2.4-9.8
			c1.5-3.2,3.5-6.1,6-8.6c3-2.9,6.4-5.1,10.3-6.5c2.5-0.9,5-1.4,7.6-1.6c1.9-0.1,3.8-0.1,5.6,0.1c0.3,0,0.4,0.1,0.4,0.4
			C63.1,59.5,63.1,60.5,63,61.5z"/>
		<path class="st4" d="M53.2,97.7c-1.1-0.5-2.1-1.3-3-2.1c-2.3-2.2-3.6-4.8-3.9-7.9c-0.7-6.5,3.4-12.1,9.1-13.9
			c2.4-0.7,4.9-0.8,7.3-0.1c0.1,0,0.3,0.1,0.4,0.1c0.1-0.2,0-0.4,0-0.6c0-3.7,0-7.3,0-11c0-0.2,0-0.4,0-0.6c1.4-0.1,2.8,0,4.2,0.2
			c0.2,0,0.3,0.1,0.3,0.3c0,0.1,0,0.2,0,0.3c0,4.8,0,9.7,0,14.5c0,0.2,0,0.4-0.1,0.6c-0.6-0.1-1.3-0.3-1.9-0.4
			c-3.7-0.5-7.1,0.4-10.1,2.7c-2.6,2-4.2,4.7-4.7,8c-0.6,3.5,0.1,6.7,2.1,9.6C53,97.5,53.1,97.6,53.2,97.7z"/>
		<path class="st4" d="M97.5,42.9c-1.4-0.8-2.6-1.9-3.8-3c-3-3.1-5-6.8-5.8-11.1c0,0,0-0.1,0-0.1c1.3-0.1,2.6,0,3.9,0
			c0.2,0,0.3,0.1,0.3,0.3c0,0.1,0,0.2,0,0.3c-0.1,3.7,1,7,2.8,10.2c0.6,1.1,1.4,2.2,2.2,3.2C97.3,42.6,97.5,42.7,97.5,42.9z"/>
		<path class="st5" d="M109.1,49.6c-3.7-0.8-7-2.5-9.9-5c-0.4-0.4-0.9-0.7-1.2-1.2c0.1,0,0.2,0.1,0.3,0.1c2.3,1.3,4.7,2.1,7.3,2.6
			c1,0.2,2,0.3,3,0.3c0.4,0,0.4,0,0.4,0.4C109.2,47.7,109.2,48.6,109.1,49.6z"/>
	</g>
</g>
</svg>
