<?xml version="1.0" encoding="utf-8"?>
<!-- Generator: Adobe Illustrator 26.0.1, SVG Export Plug-In . SVG Version: 6.00 Build 0)  -->
<svg version="1.1" id="Layer_1" xmlns="http://www.w3.org/2000/svg" xmlns:xlink="http://www.w3.org/1999/xlink" x="0px" y="0px"
	 viewBox="0 0 142.4 141.2" style="enable-background:new 0 0 142.4 141.2;" xml:space="preserve">
<style type="text/css">
	.st0{clip-path:url(#SVGID_00000134966504143314772700000007314791445193272707_);}
	.st1{fill:#2E647D;}
	.st2{fill-rule:evenodd;clip-rule:evenodd;fill:#EAA342;}
	.st3{fill:#EAA342;}
	.st4{fill:#4697C0;}
	.st5{fill:#D85B37;}
</style>
<g>
	<circle class="st3" cx="71.2" cy="70.6" r="67.5"/>
	<g>
		<path class="st1" d="M76.4,61.4c1.1-1.2,2-2.5,3.2-3.6c3.5-3.3,7.6-5,12.5-4.9c2.7,0,5.3,0.2,7.8,1c5.9,1.7,9.3,5.7,10.9,11.5
			c1.2,4.3,1.4,8.7,1.5,13.1c0,9.3,0,18.6,0,28c0,0.9-0.2,1.1-1.1,1.1c-4.8,0-9.6,0-14.4,0c-0.8,0-1-0.3-1-1.1c0-8.9,0-17.7,0-26.6
			c0-2.2-0.1-4.4-0.8-6.6c-1.1-4-4-6-8.2-5.8c-5.7,0.3-8.7,3.1-9.4,8.9c-0.2,1.4-0.3,2.8-0.3,4.2c0,8.6,0,17.3,0,25.9
			c0,0.9-0.2,1.1-1.1,1.1c-4.8,0-9.7,0-14.5,0c-0.8,0-1-0.2-1-1c0-17.1,0-34.2,0-51.3c0-0.8,0.3-1,1.1-1c4.6,0,9.2,0,13.8,0
			c0.8,0,1.1,0.3,1,1.1C76.4,57.3,76.4,59.4,76.4,61.4z"/>
		<path class="st1" d="M50.1,80.9c0,8.5,0,16.9,0,25.4c0,0.9-0.2,1.2-1.2,1.2c-4.8-0.1-9.6,0-14.4,0c-0.8,0-1-0.2-1-1
			c0-17.1,0-34.2,0-51.3c0-0.7,0.2-1,0.9-1c4.9,0,9.7,0,14.6,0c0.9,0,1.1,0.4,1.1,1.2C50.1,63.9,50.1,72.4,50.1,80.9z"/>
		<path class="st1" d="M51.4,37.3c0,5.3-4.3,9.6-9.6,9.6c-5.2,0-9.6-4.3-9.6-9.5c0-5.3,4.3-9.6,9.6-9.6C47.1,27.7,51.4,32,51.4,37.3
			z"/>
	</g>
</g>
</svg>
